<mxfile host="app.diagrams.net" modified="2023-09-10T03:16:42.145Z" agent="Mozilla/5.0 (Windows NT 10.0; Win64; x64) AppleWebKit/537.36 (KHTML, like Gecko) Chrome/116.0.0.0 Safari/537.36" etag="hIJtiRxn6Owc4o5uYkdu" version="21.7.4" type="device">
  <diagram name="Page-1" id="zphjhMDWY2NnguYYrJ7E">
    <mxGraphModel dx="683" dy="376" grid="1" gridSize="10" guides="1" tooltips="1" connect="1" arrows="1" fold="1" page="1" pageScale="1" pageWidth="850" pageHeight="1100" math="0" shadow="0">
      <root>
        <mxCell id="0" />
        <mxCell id="1" parent="0" />
        <mxCell id="ypJe4oytZsBlA64lDyWB-1" value="Person" style="swimlane;fontStyle=1;align=center;verticalAlign=top;childLayout=stackLayout;horizontal=1;startSize=26;horizontalStack=0;resizeParent=1;resizeParentMax=0;resizeLast=0;collapsible=1;marginBottom=0;whiteSpace=wrap;html=1;" vertex="1" parent="1">
          <mxGeometry x="340" y="260" width="270" height="380" as="geometry" />
        </mxCell>
        <mxCell id="ypJe4oytZsBlA64lDyWB-2" value="+ String name;&lt;br&gt;+ int age;&lt;br&gt;+ String occupation;&lt;br&gt;+ int numChildren;&lt;br&gt;+ String favHobby;" style="text;strokeColor=none;fillColor=none;align=left;verticalAlign=top;spacingLeft=4;spacingRight=4;overflow=hidden;rotatable=0;points=[[0,0.5],[1,0.5]];portConstraint=eastwest;whiteSpace=wrap;html=1;" vertex="1" parent="ypJe4oytZsBlA64lDyWB-1">
          <mxGeometry y="26" width="270" height="84" as="geometry" />
        </mxCell>
        <mxCell id="ypJe4oytZsBlA64lDyWB-3" value="" style="line;strokeWidth=1;fillColor=none;align=left;verticalAlign=middle;spacingTop=-1;spacingLeft=3;spacingRight=3;rotatable=0;labelPosition=right;points=[];portConstraint=eastwest;strokeColor=inherit;" vertex="1" parent="ypJe4oytZsBlA64lDyWB-1">
          <mxGeometry y="110" width="270" height="8" as="geometry" />
        </mxCell>
        <mxCell id="ypJe4oytZsBlA64lDyWB-4" value="+ Person(String name, int age, String occupation, int numChildren, String favHobby)&amp;nbsp;&lt;br&gt;&lt;br&gt;+ public void setName (String name)&lt;br&gt;+ public void setAge (int age)&lt;br&gt;+ public void setOccupation (String occupation)&lt;br&gt;+ public void setNumChildren (int numChildren)&lt;br&gt;+ public void setFavHobby (String favhobby)&lt;br&gt;&lt;br&gt;+ public String getName()&lt;br&gt;+ public int getAge()&lt;br&gt;+ public String getOccupation()&lt;br&gt;+ public int getNumChildren()&lt;br&gt;+ public String getFavHobby()&lt;br&gt;&lt;br&gt;+ public void doHobby()&lt;br&gt;+ public void introduceSelf()" style="text;strokeColor=none;fillColor=none;align=left;verticalAlign=top;spacingLeft=4;spacingRight=4;overflow=hidden;rotatable=0;points=[[0,0.5],[1,0.5]];portConstraint=eastwest;whiteSpace=wrap;html=1;" vertex="1" parent="ypJe4oytZsBlA64lDyWB-1">
          <mxGeometry y="118" width="270" height="262" as="geometry" />
        </mxCell>
      </root>
    </mxGraphModel>
  </diagram>
</mxfile>
